%
M48
M72
T01C0.0276
T02C0.0315
T03C0.0320
T04C0.0360
T05C0.0394
T06C0.0400
T07C0.0470
T08C0.0472
T09C0.0520
T10C0.1614
%
T01
X10626Y19126
X10626Y18126
X10626Y17126
X10626Y16126
X10626Y15126
X10626Y14126
X10626Y13126
X10626Y12126
X10626Y11126
X10626Y10126
X10626Y9126
X10626Y8126
X10626Y7126
X10626Y6126
X10626Y5126
X10626Y4126
X13626Y4126
X13626Y5126
X13626Y6126
X13626Y7126
X13626Y8126
X13626Y9126
X13626Y10126
X13626Y11126
X13626Y12126
X13626Y13126
X13626Y14126
X13626Y15126
X13626Y16126
X13626Y17126
X13626Y18126
X13626Y19126
T02
X6126Y27126
X6126Y26126
X6126Y25126
X6126Y24126
X9126Y24126
X9126Y25126
X9126Y26126
X9126Y27126
X11626Y21126
X12626Y21126
X13626Y21126
X18126Y27626
X18626Y26626
X18626Y25126
X17126Y28626
X16126Y31126
X15126Y32126
X13626Y33626
X13126Y34626
X17126Y34626
X18126Y33626
X19626Y32126
X20626Y31126
T03
X8126Y21126
X8626Y22626
X10126Y24126
X11126Y24126
X12126Y24126
X13126Y23126
X14126Y23126
X12126Y28126
X11126Y28126
X10126Y28126
X8326Y30126
X6926Y30126
X6626Y22626
X10126Y21126
T04
X2626Y26626
X3626Y26626
T05
X16626Y21626
X20626Y21626
T06
X3126Y21626
X4126Y23626
X2126Y23626
X6626Y34626
X8626Y34626
X14626Y33126
X18626Y33126
T07
X6876Y4626
X6876Y6626
X6876Y8626
X6876Y10626
X6876Y12626
X6876Y14626
X6876Y16626
X6876Y18626
X3376Y30626
X3376Y32626
X13126Y36376
X17126Y36376
X17376Y18626
X17376Y16626
X17376Y14626
X17376Y12626
X17376Y10626
X17376Y8626
X17376Y6626
X17376Y4626
T08
X16626Y36376
X13626Y36376
T09
X16276Y29476
X16276Y24676
X18626Y23876
X20976Y24676
X20976Y29476
T10
X2488Y2488
X21385Y2488
X21385Y37133
X2488Y37133
M30
